<svg width="214" height="66" viewBox="0 0 214 66" fill="none" xmlns="http://www.w3.org/2000/svg">
<path d="M198.123 24.5532H201.111V18.0129H205.226V24.5532H209.166V28.0466H205.226V34.8586C205.226 35.7125 205.368 36.353 205.653 36.78C205.95 37.2069 206.371 37.4204 206.914 37.4204C207.367 37.4204 207.723 37.3363 207.982 37.1681C208.253 36.9999 208.415 36.8835 208.467 36.8188L210 39.8269C209.922 39.9046 209.696 40.034 209.321 40.2151C208.946 40.3962 208.46 40.5644 207.865 40.7197C207.27 40.875 206.591 40.9526 205.827 40.9526C204.482 40.9526 203.356 40.5515 202.451 39.7493C201.558 38.9471 201.111 37.6921 201.111 35.9842V28.0466H198.123V24.5532Z" fill="#0A1B3C"/>
<path d="M188.731 24.0874C189.805 24.0874 190.846 24.3074 191.855 24.7473C192.865 25.1872 193.693 25.8923 194.34 26.8627C195 27.8201 195.329 29.0687 195.329 30.6084V40.4868H191.157V31.3652C191.157 29.9291 190.814 28.8746 190.128 28.2018C189.455 27.5161 188.582 27.1732 187.508 27.1732C186.797 27.1732 186.117 27.3738 185.47 27.7749C184.823 28.1759 184.293 28.7194 183.879 29.4051C183.478 30.0908 183.277 30.8801 183.277 31.7728V40.4868H179.124V24.5532H183.277V27.2314C183.394 26.7915 183.704 26.3322 184.209 25.8535C184.726 25.3618 185.38 24.9478 186.169 24.6114C186.958 24.2621 187.812 24.0874 188.731 24.0874Z" fill="#0A1B3C"/>
<path d="M170.226 40.4868V24.5532H174.359V40.4868H170.226ZM172.341 19.779C171.642 19.779 171.041 19.5267 170.536 19.0221C170.044 18.5175 169.799 17.9158 169.799 17.2172C169.799 16.5185 170.044 15.9169 170.536 15.4123C171.041 14.8947 171.642 14.636 172.341 14.636C172.807 14.636 173.234 14.7589 173.622 15.0047C174.023 15.2376 174.34 15.5481 174.573 15.9363C174.819 16.3115 174.942 16.7384 174.942 17.2172C174.942 17.9158 174.689 18.5175 174.185 19.0221C173.68 19.5267 173.066 19.779 172.341 19.779Z" fill="#0A1B3C"/>
<path d="M159.826 24.0874C161.017 24.0874 162.039 24.3397 162.893 24.8443C163.76 25.3489 164.426 26.1252 164.892 27.1732C165.37 28.2212 165.61 29.5603 165.61 31.1906V40.4868H161.515V31.9281C161.515 30.3884 161.295 29.2175 160.855 28.4153C160.428 27.6131 159.619 27.212 158.429 27.212C157.782 27.212 157.174 27.3867 156.605 27.736C156.035 28.0854 155.576 28.6094 155.227 29.308C154.89 29.9938 154.722 30.8671 154.722 31.9281V40.4868H150.879V31.9281C150.879 30.3884 150.614 29.2175 150.084 28.4153C149.566 27.6131 148.79 27.212 147.755 27.212C147.095 27.212 146.487 27.3802 145.931 27.7166C145.374 28.053 144.928 28.5706 144.591 29.2692C144.255 29.9679 144.087 30.8542 144.087 31.9281V40.4868H139.972V24.5532H144.087V26.9403C144.229 26.5392 144.546 26.1187 145.038 25.6788C145.542 25.2389 146.17 24.8637 146.92 24.5532C147.671 24.2427 148.492 24.0874 149.385 24.0874C150.355 24.0874 151.158 24.2686 151.792 24.6308C152.439 24.9802 152.95 25.4201 153.325 25.9505C153.713 26.481 153.998 27.0115 154.179 27.542C154.36 27.0115 154.709 26.481 155.227 25.9505C155.757 25.4201 156.417 24.9802 157.206 24.6308C157.996 24.2686 158.869 24.0874 159.826 24.0874Z" fill="#0A1B3C"/>
<path d="M135.331 40.4868H131.158V13.782H135.331V40.4868Z" fill="#0A1B3C"/>
<path d="M115.227 33.5001C115.253 34.3411 115.454 35.098 115.829 35.7708C116.204 36.4436 116.754 36.974 117.479 37.3622C118.216 37.7374 119.115 37.925 120.176 37.925C121.095 37.925 121.884 37.8021 122.544 37.5563C123.217 37.2975 123.773 36.9934 124.213 36.6441C124.653 36.2818 124.977 35.9454 125.184 35.6349L127.027 38.1385C126.626 38.6819 126.122 39.1671 125.513 39.594C124.905 40.021 124.148 40.3509 123.243 40.5838C122.35 40.8297 121.244 40.9526 119.924 40.9526C118.19 40.9526 116.683 40.5968 115.402 39.8852C114.121 39.1736 113.125 38.1708 112.413 36.877C111.715 35.5832 111.365 34.0694 111.365 32.3356C111.365 30.783 111.689 29.3857 112.336 28.1436C112.983 26.8886 113.921 25.8988 115.15 25.1742C116.392 24.4497 117.88 24.0874 119.614 24.0874C121.231 24.0874 122.635 24.4109 123.825 25.0578C125.015 25.7047 125.934 26.6363 126.581 27.8525C127.241 29.0557 127.571 30.5113 127.571 32.2192C127.571 32.3227 127.564 32.5362 127.551 32.8596C127.551 33.1831 127.538 33.3966 127.512 33.5001H115.227ZM123.689 30.4725C123.676 30.0585 123.534 29.5862 123.262 29.0557C123.003 28.5253 122.583 28.066 122.001 27.6778C121.418 27.2767 120.642 27.0762 119.672 27.0762C118.676 27.0762 117.867 27.2703 117.246 27.6584C116.625 28.0336 116.165 28.4865 115.868 29.0169C115.57 29.5345 115.396 30.0197 115.344 30.4725H123.689Z" fill="#0A1B3C"/>
<path d="M103.138 32.0251L110.008 40.4868H105.311L100.615 34.5869L95.918 40.4868H91.5125L98.3633 32.2968L92.2111 24.5532H96.9272L100.828 29.638L104.845 24.5532H109.173L103.138 32.0251Z" fill="#0A1B3C"/>
<path d="M83.953 40.4868V24.5532H88.0868V40.4868H83.953ZM86.0684 19.779C85.3697 19.779 84.7681 19.5267 84.2635 19.0221C83.7718 18.5175 83.526 17.9158 83.526 17.2172C83.526 16.5185 83.7718 15.9169 84.2635 15.4123C84.7681 14.8947 85.3697 14.636 86.0684 14.636C86.5342 14.636 86.9611 14.7589 87.3493 15.0047C87.7504 15.2376 88.0674 15.5481 88.3003 15.9363C88.5461 16.3115 88.669 16.7384 88.669 17.2172C88.669 17.9158 88.4167 18.5175 87.9121 19.0221C87.4075 19.5267 86.7929 19.779 86.0684 19.779Z" fill="#0A1B3C"/>
<path d="M63.3112 14.8689H71.1906C72.795 14.8689 74.2441 15.1406 75.5379 15.684C76.8447 16.2274 77.8862 17.0619 78.6625 18.1876C79.4388 19.3132 79.827 20.7623 79.827 22.5348C79.827 24.3074 79.4388 25.7888 78.6625 26.9792C77.8862 28.1566 76.8447 29.0428 75.5379 29.638C74.2441 30.2332 72.795 30.5308 71.1906 30.5308H67.3867V40.4868H63.3112V14.8689ZM67.3867 27.1927H70.065C71.0612 27.1927 71.9669 27.0503 72.782 26.7657C73.6101 26.4681 74.2635 25.9829 74.7422 25.3101C75.2339 24.6373 75.4797 23.7446 75.4797 22.6319C75.4797 21.5062 75.2339 20.6264 74.7422 19.9925C74.2635 19.3455 73.6101 18.8862 72.782 18.6145C71.9669 18.3428 71.0612 18.207 70.065 18.207H67.3867V27.1927Z" fill="#0A1B3C"/>
<path d="M208.043 46.8516L207.463 47.0158C207.427 46.9191 207.373 46.8252 207.302 46.734C207.232 46.6409 207.137 46.5643 207.017 46.5041C206.897 46.4439 206.742 46.4138 206.555 46.4138C206.297 46.4138 206.083 46.4731 205.912 46.5917C205.742 46.7084 205.657 46.8571 205.657 47.0377C205.657 47.1982 205.715 47.325 205.832 47.418C205.949 47.5111 206.131 47.5886 206.379 47.6506L207.003 47.8038C207.379 47.8951 207.659 48.0346 207.843 48.2225C208.028 48.4085 208.12 48.6484 208.12 48.9421C208.12 49.1829 208.05 49.3982 207.912 49.5879C207.775 49.7776 207.583 49.9272 207.337 50.0366C207.091 50.1461 206.804 50.2008 206.478 50.2008C206.049 50.2008 205.694 50.1077 205.414 49.9217C205.133 49.7356 204.955 49.4638 204.88 49.1063L205.493 48.9531C205.551 49.1793 205.662 49.3489 205.824 49.462C205.988 49.5751 206.203 49.6316 206.467 49.6316C206.768 49.6316 207.007 49.5678 207.184 49.4401C207.363 49.3106 207.452 49.1555 207.452 48.9749C207.452 48.829 207.401 48.7068 207.299 48.6083C207.197 48.508 207.04 48.4332 206.828 48.3839L206.128 48.2197C205.743 48.1285 205.46 47.9872 205.279 47.7956C205.101 47.6023 205.011 47.3606 205.011 47.0705C205.011 46.8334 205.078 46.6236 205.211 46.4412C205.346 46.2588 205.529 46.1156 205.761 46.0116C205.995 45.9076 206.259 45.8557 206.555 45.8557C206.97 45.8557 207.297 45.9469 207.534 46.1293C207.773 46.3117 207.943 46.5525 208.043 46.8516Z" fill="#222222"/>
<path d="M204.17 45.9104V46.4576H201.992V45.9104H204.17ZM202.627 44.9034H203.272V48.9093C203.272 49.0917 203.299 49.2285 203.352 49.3197C203.407 49.4091 203.476 49.4693 203.56 49.5003C203.646 49.5295 203.736 49.5441 203.831 49.5441C203.902 49.5441 203.96 49.5404 204.006 49.5331C204.051 49.524 204.088 49.5167 204.115 49.5112L204.247 50.0913C204.203 50.1077 204.142 50.1242 204.063 50.1406C203.985 50.1588 203.885 50.1679 203.765 50.1679C203.583 50.1679 203.404 50.1287 203.229 50.0503C203.055 49.9718 202.911 49.8524 202.796 49.6918C202.683 49.5313 202.627 49.3288 202.627 49.0844V44.9034Z" fill="#222222"/>
<path d="M199.212 50.1132V45.9104H199.836V46.5452H199.879C199.956 46.3372 200.095 46.1685 200.295 46.039C200.496 45.9095 200.722 45.8447 200.974 45.8447C201.021 45.8447 201.081 45.8456 201.152 45.8474C201.223 45.8493 201.277 45.852 201.313 45.8556V46.5123C201.291 46.5069 201.241 46.4987 201.163 46.4877C201.086 46.4749 201.005 46.4686 200.919 46.4686C200.715 46.4686 200.532 46.5114 200.372 46.5972C200.213 46.6811 200.087 46.7978 199.994 46.9474C199.903 47.0952 199.858 47.2639 199.858 47.4536V50.1132H199.212Z" fill="#222222"/>
<path d="M194.322 50.1132H193.611L195.669 44.5094H196.369L198.427 50.1132H197.715L196.041 45.396H195.997L194.322 50.1132ZM194.585 47.9242H197.453V48.5262H194.585V47.9242Z" fill="#222222"/>
<path d="M190.655 44.5094V50.1132H190.009V44.5094H190.655Z" fill="#222222"/>
<path d="M186.904 50.2117C186.638 50.2117 186.396 50.1616 186.179 50.0612C185.962 49.9591 185.79 49.8122 185.662 49.6207C185.535 49.4273 185.471 49.1938 185.471 48.9202C185.471 48.6794 185.518 48.4843 185.613 48.3347C185.708 48.1833 185.835 48.0647 185.993 47.979C186.152 47.8932 186.327 47.8294 186.519 47.7874C186.712 47.7436 186.906 47.709 187.101 47.6834C187.357 47.6506 187.564 47.626 187.723 47.6096C187.883 47.5913 188 47.5612 188.073 47.5193C188.148 47.4773 188.185 47.4044 188.185 47.3004V47.2785C188.185 47.0085 188.111 46.7987 187.963 46.6492C187.817 46.4996 187.596 46.4248 187.299 46.4248C186.99 46.4248 186.749 46.4923 186.573 46.6273C186.398 46.7623 186.275 46.9064 186.204 47.0596L185.591 46.8407C185.701 46.5853 185.846 46.3865 186.029 46.2442C186.213 46.1001 186.414 45.9998 186.631 45.9432C186.85 45.8848 187.065 45.8557 187.277 45.8557C187.412 45.8557 187.567 45.8721 187.742 45.9049C187.919 45.9359 188.089 46.0007 188.253 46.0992C188.419 46.1977 188.557 46.3463 188.667 46.5452C188.776 46.744 188.831 47.0103 188.831 47.3442V50.1132H188.185V49.5441H188.152C188.108 49.6353 188.035 49.7329 187.933 49.8369C187.831 49.9408 187.695 50.0293 187.526 50.1023C187.356 50.1752 187.149 50.2117 186.904 50.2117ZM187.003 49.6316C187.258 49.6316 187.474 49.5815 187.649 49.4811C187.826 49.3808 187.959 49.2513 188.048 49.0926C188.139 48.9339 188.185 48.767 188.185 48.5919V48.0009C188.158 48.0337 188.097 48.0638 188.004 48.0911C187.913 48.1167 187.807 48.1395 187.687 48.1596C187.568 48.1778 187.453 48.1942 187.34 48.2088C187.228 48.2216 187.138 48.2325 187.069 48.2416C186.901 48.2635 186.744 48.2991 186.598 48.3484C186.454 48.3958 186.337 48.4678 186.248 48.5645C186.16 48.6594 186.116 48.7889 186.116 48.9531C186.116 49.1774 186.199 49.3471 186.365 49.462C186.533 49.5751 186.746 49.6316 187.003 49.6316Z" fill="#222222"/>
<path d="M183.839 48.3949V45.9104H184.485V50.1132H183.839V49.4018H183.795C183.697 49.6152 183.543 49.7967 183.336 49.9463C183.128 50.0941 182.865 50.1679 182.547 50.1679C182.285 50.1679 182.051 50.1105 181.847 49.9956C181.643 49.8788 181.482 49.7037 181.365 49.4702C181.249 49.2349 181.19 48.9385 181.19 48.5809V45.9104H181.836V48.5372C181.836 48.8436 181.922 49.0881 182.093 49.2705C182.267 49.4529 182.487 49.5441 182.755 49.5441C182.916 49.5441 183.079 49.503 183.245 49.421C183.413 49.3389 183.553 49.213 183.667 49.0434C183.782 48.8737 183.839 48.6576 183.839 48.3949Z" fill="#222222"/>
<path d="M180.142 46.8516L179.562 47.0158C179.525 46.9191 179.471 46.8252 179.4 46.734C179.331 46.6409 179.236 46.5643 179.116 46.5041C178.995 46.4439 178.841 46.4138 178.653 46.4138C178.396 46.4138 178.182 46.4731 178.01 46.5917C177.841 46.7084 177.756 46.8571 177.756 47.0377C177.756 47.1982 177.814 47.325 177.931 47.418C178.048 47.5111 178.23 47.5886 178.478 47.6506L179.102 47.8038C179.478 47.8951 179.758 48.0346 179.942 48.2225C180.126 48.4085 180.218 48.6484 180.218 48.9421C180.218 49.1829 180.149 49.3982 180.01 49.5879C179.874 49.7776 179.682 49.9272 179.436 50.0366C179.19 50.1461 178.903 50.2008 178.577 50.2008C178.148 50.2008 177.793 50.1077 177.512 49.9217C177.231 49.7356 177.054 49.4638 176.979 49.1063L177.592 48.9531C177.65 49.1793 177.76 49.3489 177.923 49.462C178.087 49.5751 178.301 49.6316 178.566 49.6316C178.867 49.6316 179.106 49.5678 179.283 49.4401C179.461 49.3106 179.551 49.1555 179.551 48.9749C179.551 48.829 179.5 48.7068 179.398 48.6083C179.295 48.508 179.139 48.4332 178.927 48.3839L178.226 48.2197C177.842 48.1285 177.559 47.9872 177.378 47.7956C177.199 47.6023 177.11 47.3606 177.11 47.0705C177.11 46.8334 177.177 46.6236 177.31 46.4412C177.445 46.2588 177.628 46.1156 177.86 46.0116C178.093 45.9076 178.358 45.8557 178.653 45.8557C179.069 45.8557 179.396 45.9469 179.633 46.1293C179.872 46.3117 180.042 46.5525 180.142 46.8516Z" fill="#222222"/>
<path d="M175.336 50.1132V45.9104H175.982V50.1132H175.336ZM175.665 45.2099C175.539 45.2099 175.43 45.167 175.339 45.0813C175.25 44.9956 175.205 44.8925 175.205 44.7721C175.205 44.6517 175.25 44.5486 175.339 44.4629C175.43 44.3772 175.539 44.3343 175.665 44.3343C175.791 44.3343 175.898 44.3772 175.988 44.4629C176.079 44.5486 176.124 44.6517 176.124 44.7721C176.124 44.8925 176.079 44.9956 175.988 45.0813C175.898 45.167 175.791 45.2099 175.665 45.2099Z" fill="#222222"/>
<path d="M170.447 44.5094L172.11 49.2267H172.176L173.84 44.5094H174.551L172.493 50.1132H171.793L169.735 44.5094H170.447Z" fill="#222222"/>
<path d="M167.057 45.9104V46.4576H164.792V45.9104H167.057ZM165.47 50.1132V45.3303C165.47 45.0895 165.527 44.8889 165.64 44.7283C165.753 44.5678 165.9 44.4474 166.08 44.3671C166.261 44.2869 166.451 44.2467 166.652 44.2467C166.811 44.2467 166.94 44.2595 167.041 44.2851C167.141 44.3106 167.216 44.3343 167.265 44.3562L167.079 44.9144C167.046 44.9034 167.001 44.8898 166.942 44.8733C166.886 44.8569 166.811 44.8487 166.718 44.8487C166.504 44.8487 166.35 44.9025 166.255 45.0102C166.162 45.1178 166.116 45.2756 166.116 45.4835V50.1132H165.47Z" fill="#222222"/>
<path d="M162.296 50.2008C161.916 50.2008 161.583 50.1105 161.297 49.9299C161.012 49.7493 160.79 49.4967 160.629 49.172C160.47 48.8473 160.391 48.4678 160.391 48.0337C160.391 47.5959 160.47 47.2137 160.629 46.8872C160.79 46.5607 161.012 46.3071 161.297 46.1265C161.583 45.9459 161.916 45.8557 162.296 45.8557C162.675 45.8557 163.007 45.9459 163.292 46.1265C163.578 46.3071 163.8 46.5607 163.959 46.8872C164.12 47.2137 164.2 47.5959 164.2 48.0337C164.2 48.4678 164.12 48.8473 163.959 49.172C163.8 49.4967 163.578 49.7493 163.292 49.9299C163.007 50.1105 162.675 50.2008 162.296 50.2008ZM162.296 49.6207C162.584 49.6207 162.821 49.5468 163.007 49.3991C163.193 49.2513 163.331 49.057 163.42 48.8162C163.509 48.5755 163.554 48.3146 163.554 48.0337C163.554 47.7528 163.509 47.491 163.42 47.2484C163.331 47.0058 163.193 46.8097 163.007 46.6601C162.821 46.5105 162.584 46.4357 162.296 46.4357C162.007 46.4357 161.77 46.5105 161.584 46.6601C161.398 46.8097 161.26 47.0058 161.171 47.2484C161.082 47.491 161.037 47.7528 161.037 48.0337C161.037 48.3146 161.082 48.5755 161.171 48.8162C161.26 49.057 161.398 49.2513 161.584 49.3991C161.77 49.5468 162.007 49.6207 162.296 49.6207Z" fill="#222222"/>
<path d="M155.699 50.2008C155.294 50.2008 154.944 50.1114 154.651 49.9326C154.359 49.752 154.133 49.5003 153.975 49.1774C153.818 48.8527 153.739 48.4751 153.739 48.0446C153.739 47.6141 153.818 47.2347 153.975 46.9064C154.133 46.5762 154.354 46.319 154.637 46.1347C154.921 45.9487 155.253 45.8557 155.633 45.8557C155.852 45.8557 156.068 45.8921 156.281 45.9651C156.495 46.0381 156.689 46.1566 156.864 46.3208C157.039 46.4832 157.179 46.6984 157.283 46.9666C157.387 47.2347 157.439 47.5649 157.439 47.9571V48.2307H154.199V47.6725H156.782C156.782 47.4354 156.735 47.2238 156.64 47.0377C156.547 46.8516 156.414 46.7048 156.24 46.5972C156.069 46.4895 155.866 46.4357 155.633 46.4357C155.376 46.4357 155.153 46.4996 154.965 46.6273C154.779 46.7531 154.636 46.9173 154.536 47.1198C154.435 47.3223 154.385 47.5393 154.385 47.771V48.1431C154.385 48.4605 154.44 48.7296 154.549 48.9503C154.661 49.1692 154.815 49.3361 155.012 49.4511C155.209 49.5641 155.438 49.6207 155.699 49.6207C155.868 49.6207 156.021 49.597 156.158 49.5496C156.297 49.5003 156.416 49.4273 156.517 49.3307C156.617 49.2322 156.695 49.1099 156.749 48.964L157.373 49.1391C157.307 49.3507 157.197 49.5368 157.042 49.6973C156.887 49.856 156.695 49.9801 156.467 50.0694C156.239 50.157 155.983 50.2008 155.699 50.2008Z" fill="#222222"/>
<path d="M153.01 45.9104V46.4576H150.832V45.9104H153.01ZM151.467 44.9034H152.113V48.9093C152.113 49.0917 152.139 49.2285 152.192 49.3197C152.247 49.4091 152.316 49.4693 152.4 49.5003C152.486 49.5295 152.576 49.5441 152.671 49.5441C152.742 49.5441 152.8 49.5404 152.846 49.5331C152.891 49.524 152.928 49.5167 152.955 49.5112L153.087 50.0913C153.043 50.1077 152.982 50.1242 152.903 50.1406C152.825 50.1588 152.725 50.1679 152.605 50.1679C152.423 50.1679 152.244 50.1287 152.069 50.0503C151.896 49.9718 151.751 49.8524 151.636 49.6918C151.523 49.5313 151.467 49.3288 151.467 49.0844V44.9034Z" fill="#222222"/>
<path d="M149.354 48.3949V45.9104H149.999V50.1132H149.354V49.4018H149.31C149.211 49.6152 149.058 49.7967 148.85 49.9463C148.642 50.0941 148.38 50.1679 148.062 50.1679C147.8 50.1679 147.566 50.1105 147.362 49.9956C147.157 49.8788 146.997 49.7037 146.88 49.4702C146.763 49.2349 146.705 48.9385 146.705 48.5809V45.9104H147.351V48.5372C147.351 48.8436 147.437 49.0881 147.608 49.2705C147.781 49.4529 148.002 49.5441 148.27 49.5441C148.431 49.5441 148.594 49.503 148.76 49.421C148.928 49.3389 149.068 49.213 149.181 49.0434C149.296 48.8737 149.354 48.6576 149.354 48.3949Z" fill="#222222"/>
<path d="M145.734 45.9104V46.4576H143.556V45.9104H145.734ZM144.191 44.9034H144.836V48.9093C144.836 49.0917 144.863 49.2285 144.916 49.3197C144.97 49.4091 145.04 49.4693 145.124 49.5003C145.209 49.5295 145.3 49.5441 145.395 49.5441C145.466 49.5441 145.524 49.5404 145.57 49.5331C145.615 49.524 145.652 49.5167 145.679 49.5112L145.81 50.0913C145.767 50.1077 145.706 50.1242 145.627 50.1406C145.549 50.1588 145.449 50.1679 145.329 50.1679C145.146 50.1679 144.968 50.1287 144.793 50.0503C144.619 49.9718 144.475 49.8524 144.36 49.6918C144.247 49.5313 144.191 49.3288 144.191 49.0844V44.9034Z" fill="#222222"/>
<path d="M142.078 50.1132V45.9104H142.723V50.1132H142.078ZM142.406 45.2099C142.28 45.2099 142.171 45.167 142.08 45.0813C141.991 44.9956 141.946 44.8925 141.946 44.7721C141.946 44.6517 141.991 44.5486 142.08 44.4629C142.171 44.3772 142.28 44.3343 142.406 44.3343C142.532 44.3343 142.639 44.3772 142.729 44.4629C142.82 44.5486 142.866 44.6517 142.866 44.7721C142.866 44.8925 142.82 44.9956 142.729 45.0813C142.639 45.167 142.532 45.2099 142.406 45.2099Z" fill="#222222"/>
<path d="M141.106 45.9104V46.4576H138.928V45.9104H141.106ZM139.563 44.9034H140.209V48.9093C140.209 49.0917 140.235 49.2285 140.288 49.3197C140.343 49.4091 140.412 49.4693 140.496 49.5003C140.582 49.5295 140.672 49.5441 140.767 49.5441C140.838 49.5441 140.896 49.5404 140.942 49.5331C140.988 49.524 141.024 49.5167 141.052 49.5112L141.183 50.0913C141.139 50.1077 141.078 50.1242 141 50.1406C140.921 50.1588 140.822 50.1679 140.701 50.1679C140.519 50.1679 140.34 50.1287 140.165 50.0503C139.992 49.9718 139.848 49.8524 139.733 49.6918C139.62 49.5313 139.563 49.3288 139.563 49.0844V44.9034Z" fill="#222222"/>
<path d="M138.23 46.8516L137.65 47.0158C137.613 46.9191 137.559 46.8252 137.488 46.734C137.419 46.6409 137.324 46.5643 137.204 46.5041C137.083 46.4439 136.929 46.4138 136.741 46.4138C136.484 46.4138 136.27 46.4731 136.098 46.5917C135.929 46.7084 135.844 46.8571 135.844 47.0377C135.844 47.1982 135.902 47.325 136.019 47.418C136.136 47.5111 136.318 47.5886 136.566 47.6506L137.19 47.8038C137.566 47.8951 137.846 48.0346 138.03 48.2225C138.214 48.4085 138.306 48.6484 138.306 48.9421C138.306 49.1829 138.237 49.3982 138.098 49.5879C137.962 49.7776 137.77 49.9272 137.524 50.0366C137.278 50.1461 136.991 50.2008 136.665 50.2008C136.236 50.2008 135.881 50.1077 135.6 49.9217C135.319 49.7356 135.141 49.4638 135.067 49.1063L135.68 48.9531C135.738 49.1793 135.848 49.3489 136.011 49.462C136.175 49.5751 136.389 49.6316 136.654 49.6316C136.955 49.6316 137.194 49.5678 137.371 49.4401C137.549 49.3106 137.639 49.1555 137.639 48.9749C137.639 48.829 137.588 48.7068 137.485 48.6083C137.383 48.508 137.226 48.4332 137.015 48.3839L136.314 48.2197C135.929 48.1285 135.647 47.9872 135.466 47.7956C135.287 47.6023 135.198 47.3606 135.198 47.0705C135.198 46.8334 135.265 46.6236 135.398 46.4412C135.533 46.2588 135.716 46.1156 135.948 46.0116C136.181 45.9076 136.446 45.8557 136.741 45.8557C137.157 45.8557 137.484 45.9469 137.721 46.1293C137.96 46.3117 138.129 46.5525 138.23 46.8516Z" fill="#222222"/>
<path d="M131.391 47.5849V50.1132H130.745V45.9104H131.369V46.5671H131.424C131.523 46.3536 131.672 46.1822 131.873 46.0527C132.073 45.9213 132.332 45.8557 132.65 45.8557C132.934 45.8557 133.183 45.914 133.397 46.0308C133.61 46.1457 133.776 46.3208 133.895 46.5561C134.013 46.7896 134.073 47.0851 134.073 47.4427V50.1132H133.427V47.4864C133.427 47.1563 133.341 46.8991 133.17 46.7148C132.998 46.5288 132.763 46.4357 132.464 46.4357C132.258 46.4357 132.073 46.4804 131.911 46.5698C131.751 46.6592 131.624 46.7896 131.531 46.9611C131.438 47.1326 131.391 47.3405 131.391 47.5849Z" fill="#222222"/>
<path d="M129.472 44.5094V50.1132H128.794V44.5094H129.472Z" fill="#222222"/>
<path fill-rule="evenodd" clip-rule="evenodd" d="M26.261 3.97331C17.7636 5.42567 11.5446 9.99862 7.52412 17.7502L5.71039 21.2476L8.50929 18.6385C11.7272 15.6387 14.8725 13.7306 18.2265 12.7433C21.9495 11.6477 30.028 11.1485 38.8662 11.4689L46.9195 11.7607L46.6908 21.4105C46.4536 31.4341 46.1289 33.5815 44.3151 37.1287C42.984 39.7331 41.1933 41.6125 38.8052 42.9121C35.1266 44.9145 32.1689 45.3407 21.9107 45.3475L12.5818 45.3539L12.8582 42.9006C13.3331 38.6903 13.9944 36.2912 15.594 32.9807C17.4645 29.1092 21.7785 24.6015 25.9034 22.2075C28.1989 20.8755 28.4694 20.6076 27.5188 20.6076C25.5915 20.6076 19.8674 22.6316 16.993 24.3298C11.4161 27.6244 7.07485 33.4044 5.65577 39.4246C5.18261 41.4325 5.01109 44.7199 5.0064 51.8605L5 61.5671H8.83995H12.6799V57.5633V53.5595L22.5998 53.3521C33.684 53.1204 36.8763 52.5581 41.8268 49.9661C45.3822 48.105 49.6458 43.7548 51.3811 40.2191C54.0776 34.7241 54.2073 33.7637 54.3882 17.9738L54.5529 3.60724L41.4027 3.62004C34.1704 3.62686 27.3566 3.78601 26.261 3.97331Z" fill="url(#paint0_linear_2554_2)"/>
<defs>
<linearGradient id="paint0_linear_2554_2" x1="54.5529" y1="3.60724" x2="-5.18393" y2="47.8016" gradientUnits="userSpaceOnUse">
<stop stop-color="#0187FC"/>
<stop offset="1" stop-color="#1467C3"/>
</linearGradient>
</defs>
</svg>
